<svg xmlns="http://www.w3.org/2000/svg" viewBox="0 0 100 100" width="100" height="100">
<defs>
    <radialGradient id="body" cx="42%" cy="38%" r="65%">
      <stop offset="0%" stop-color="#fef08a"/><stop offset="55%" stop-color="#fbbf24"/><stop offset="100%" stop-color="#b45309"/>
    </radialGradient>
    <radialGradient id="glow" cx="50%" cy="50%" r="50%">
      <stop offset="0%" stop-color="#fbbf24" stop-opacity="0.55"/><stop offset="60%" stop-color="#fbbf24" stop-opacity="0.15"/><stop offset="100%" stop-color="#fbbf24" stop-opacity="0"/>
    </radialGradient>
  </defs>
<g><circle cx="50" cy="50" r="46" fill="url(#glow)"/><circle cx="50" cy="50" r="30" fill="url(#body)"/><path d="M 35.5 47.5 Q 40 42.5 44.5 47.5" stroke="#fffaf0" stroke-width="2.6" fill="none" stroke-linecap="round"/><path d="M 55.5 47.5 Q 60 42.5 64.5 47.5" stroke="#fffaf0" stroke-width="2.6" fill="none" stroke-linecap="round"/></g>
<path d="M 18 22.4 L 18.99 25.01 L 21.6 26 L 18.99 26.99 L 18 29.6 L 17.01 26.99 L 14.4 26 L 17.01 25.01 Z" fill="#fef3c7"/><path d="M 84 20.4 L 84.99 23.01 L 87.6 24 L 84.99 24.99 L 84 27.6 L 83.01 24.99 L 80.4 24 L 83.01 23.01 Z" fill="#fef3c7"/><path d="M 82 62.8 L 82.88 65.12 L 85.2 66 L 82.88 66.88 L 82 69.2 L 81.12 66.88 L 78.8 66 L 81.12 65.12 Z" fill="#fef3c7"/>
</svg>