<svg xmlns="http://www.w3.org/2000/svg" viewBox="0 0 100 100" width="100" height="100">
<defs>
    <radialGradient id="body" cx="42%" cy="38%" r="65%">
      <stop offset="0%" stop-color="#ffffff"/><stop offset="55%" stop-color="#fcd34d"/><stop offset="100%" stop-color="#d97706"/>
    </radialGradient>
    <radialGradient id="glow" cx="50%" cy="50%" r="50%">
      <stop offset="0%" stop-color="#fcd34d" stop-opacity="0.55"/><stop offset="60%" stop-color="#fcd34d" stop-opacity="0.15"/><stop offset="100%" stop-color="#fcd34d" stop-opacity="0"/>
    </radialGradient>
  </defs>
<g><circle cx="50" cy="50" r="46" fill="url(#glow)"/><circle cx="50" cy="50" r="30" fill="url(#body)"/><path d="M 35.5 47.5 Q 40 42.5 44.5 47.5" stroke="#fffaf0" stroke-width="2.6" fill="none" stroke-linecap="round"/><path d="M 55.5 47.5 Q 60 42.5 64.5 47.5" stroke="#fffaf0" stroke-width="2.6" fill="none" stroke-linecap="round"/></g>
<g><path d="M 20 19.2 L 21.32 22.68 L 24.8 24 L 21.32 25.32 L 20 28.8 L 18.68 25.32 L 15.2 24 L 18.68 22.68 Z" fill="#fef3c7"/><path d="M 82 16 L 83.1 18.9 L 86 20 L 83.1 21.1 L 82 24 L 80.9 21.1 L 78 20 L 80.9 18.9 Z" fill="#fef3c7"/><path d="M 80 65.6 L 81.21 68.79 L 84.4 70 L 81.21 71.21 L 80 74.4 L 78.79 71.21 L 75.6 70 L 78.79 68.79 Z" fill="#fef3c7"/><path d="M 18 64.4 L 18.99 67.01 L 21.6 68 L 18.99 68.99 L 18 71.6 L 17.01 68.99 L 14.4 68 L 17.01 67.01 Z" fill="#fef3c7"/><circle cx="30" cy="15" r="1.8" fill="#f472b6"/><circle cx="74" cy="32" r="1.8" fill="#60a5fa"/><circle cx="86" cy="52" r="1.8" fill="#22c55e"/></g>
</svg>