<svg xmlns="http://www.w3.org/2000/svg" viewBox="0 0 100 100" width="100" height="100">
<defs>
    <radialGradient id="body" cx="42%" cy="38%" r="65%">
      <stop offset="0%" stop-color="#fde68a"/><stop offset="55%" stop-color="#f59e0b"/><stop offset="100%" stop-color="#b45309"/>
    </radialGradient>
    <radialGradient id="glow" cx="50%" cy="50%" r="50%">
      <stop offset="0%" stop-color="#f59e0b" stop-opacity="0.55"/><stop offset="60%" stop-color="#f59e0b" stop-opacity="0.15"/><stop offset="100%" stop-color="#f59e0b" stop-opacity="0"/>
    </radialGradient>
  </defs>
<g><circle cx="50" cy="50" r="46" fill="url(#glow)"/><circle cx="50" cy="50" r="30" fill="url(#body)"/><circle cx="42" cy="46" r="3.4" fill="#fffaf0"/><circle cx="62" cy="46" r="3.4" fill="#fffaf0"/></g>
<g opacity="0.85">
  <rect x="30" y="55" width="1.8" height="7" rx="0.9" fill="#f472b6" transform="rotate(22 31 58)"/><rect x="32.6" y="55" width="1.8" height="7" rx="0.9" fill="#f472b6" transform="rotate(22 33.6 58)"/><rect x="35.2" y="55" width="1.8" height="7" rx="0.9" fill="#f472b6" transform="rotate(22 36.2 58)"/><rect x="37.8" y="55" width="1.8" height="7" rx="0.9" fill="#f472b6" transform="rotate(22 38.8 58)"/>
  <rect x="61" y="55" width="1.8" height="7" rx="0.9" fill="#f472b6" transform="rotate(22 62 58)"/><rect x="63.6" y="55" width="1.8" height="7" rx="0.9" fill="#f472b6" transform="rotate(22 64.6 58)"/><rect x="66.2" y="55" width="1.8" height="7" rx="0.9" fill="#f472b6" transform="rotate(22 67.2 58)"/><rect x="68.8" y="55" width="1.8" height="7" rx="0.9" fill="#f472b6" transform="rotate(22 69.8 58)"/>
</g>
</svg>